<svg xmlns="http://www.w3.org/2000/svg" width="36" height="36" fill="none" viewBox="0 0 36 36">
    <path fill="#000" d="M34 0H2C.895 0 0 .895 0 2v32c0 1.105.895 2 2 2h32c1.105 0 2-.895 2-2V2c0-1.105-.895-2-2-2z"/>
    <path fill="#fff" fill-rule="evenodd" d="M6.5 24.505c0-1.165.247-2.105.743-2.82.495-.715 1.291-1.223 2.387-1.522-.326-.854-.49-1.454-.49-1.8 0-.715.356-1.424 1.067-2.128.711-.703 1.423-1.054 2.134-1.054.338 0 .746.086 1.224.259-1.9-5.329-2.85-8.598-2.85-9.809 0-.923.239-1.675.716-2.258.479-.582 1.173-.873 2.082-.873 1.527 0 3.421 3.35 5.684 10.051l.14.397c.07-.184.239-.643.506-1.375.25-.684.504-1.367.761-2.05.239-.634.554-1.37.945-2.205.39-.837.766-1.545 1.128-2.128.361-.583.772-1.081 1.233-1.497.46-.414.906-.622 1.337-.622.828 0 1.481.282 1.959.847.478.566.717 1.269.717 2.111 0 1.245-.927 4.417-2.78 9.515.71.172 1.296.438 1.757.795.455.35.809.817 1.023 1.35.222.541.373 1.081.455 1.617.081.537.122 1.174.122 1.912 0 1.73-.274 3.345-.822 4.843-.548 1.5-1.318 2.797-2.309 3.892-.99 1.096-2.22 1.961-3.69 2.595-1.468.635-3.089.952-4.861.952-1.294 0-2.594-.242-3.9-.727-1.737-.657-3.241-1.761-4.512-3.313-1.27-1.55-1.906-3.203-1.906-4.955z" clip-rule="evenodd"/>
    <path fill="#000" fill-rule="evenodd" d="M22.974 9.039l-1.994 5.674 2.046.364c1.924-5.202 2.886-8.189 2.886-8.962 0-.646-.222-.969-.665-.969-.665 0-1.422 1.298-2.273 3.893zm-5.229 11.885l.577 1.522c.431-.485.845-.871 1.242-1.159l-.578-.095-.673-.122-.568-.146zm-5.107-15.5c0 1.13.927 4.134 2.78 9.012.21-.114.497-.172.858-.172.175 0 .612.028 1.311.086l-2.115-6.072c-.875-2.538-1.592-3.806-2.152-3.806-.221 0-.39.101-.507.303-.117.201-.175.418-.175.648v.001zm-1.381 13.13c0 .415.3 1.101.9 2.058.594.95 1.283 1.836 2.055 2.647.77.807 1.353 1.211 1.749 1.211.164 0 .312-.075.446-.225.134-.15.201-.306.201-.467 0-.277-.186-.865-.56-1.765-.174-.42-.361-.835-.56-1.245-.255-.525-.532-1.038-.83-1.54-.332-.565-.69-1.032-1.075-1.401-.386-.369-.747-.554-1.085-.554-.233 0-.498.156-.795.468-.297.311-.446.582-.446.813zm-2.764 5.795c0 .473.146 1.073.438 1.799.688 1.672 1.758 2.981 3.209 3.927 1.451.945 3.092 1.419 4.923 1.419 2.646 0 4.873-.981 6.68-2.942 1.773-1.948 2.659-4.411 2.659-7.386 0-.496-.007-.883-.018-1.16-.012-.276-.079-.634-.201-1.072-.122-.438-.3-.761-.534-.969-.652-.564-1.886-1-3.698-1.305-1.813-.306-3.39-.459-4.73-.459-.432 0-.718.064-.858.19-.14.058-.21.26-.21.606 0 .392.126.738.377 1.038.25.3.573.53.97.692.396.161.848.296 1.355.406.508.11 1.017.176 1.53.199l1.487.069c.478.023.886.023 1.224 0h.402c.28 0 .514.11.7.329.175.219.285.536.332.951-.326.323-.886.634-1.678.934-.712.254-1.254.52-1.627.797-.75.533-1.393 1.202-1.898 1.972-.519.784-.778 1.573-.778 2.37 0 .357.108.867.324 1.53.215.664.323 1.168.323 1.514l-.052.208c-.047.138-.07.218-.07.242-1.598-.116-2.449-1.361-2.554-3.737-.093.023-.331.035-.716.035.023.08.034.201.034.363 0 .611-.236 1.128-.707 1.549-.473.42-1.024.63-1.654.63-.956 0-1.926-.45-2.911-1.349-.985-.9-1.478-1.816-1.478-2.75 0-.393.193-.779.578-1.159.605.738.955 1.176 1.048 1.315.899 1.199 1.673 1.799 2.326 1.799.14 0 .295-.05.464-.147.169-.099.254-.216.254-.355 0-.392-.51-1.229-1.53-2.509-1.02-1.28-1.7-1.92-2.038-1.92-.502 0-.91.257-1.224.77-.315.514-.473 1.035-.473 1.566zm-1.993.155c0-1.165.247-2.105.743-2.82.495-.715 1.291-1.222 2.387-1.521-.326-.854-.49-1.454-.49-1.8 0-.715.356-1.424 1.067-2.128.711-.703 1.423-1.054 2.134-1.054.338 0 .746.086 1.224.259-1.9-5.329-2.85-8.598-2.85-9.809 0-.923.239-1.675.716-2.258.479-.582 1.173-.873 2.082-.873 1.527 0 3.421 3.35 5.684 10.051l.14.397c.07-.184.239-.643.506-1.375.25-.684.504-1.367.761-2.05.239-.634.554-1.37.945-2.205.39-.837.766-1.545 1.128-2.128.361-.583.772-1.081 1.233-1.497.46-.414.906-.622 1.337-.622.828 0 1.481.282 1.959.847.478.566.717 1.269.717 2.111 0 1.245-.927 4.417-2.78 9.515.71.172 1.296.438 1.757.795.455.35.809.817 1.023 1.35.222.541.373 1.081.455 1.617.081.537.122 1.174.122 1.912 0 1.73-.274 3.345-.822 4.843-.548 1.5-1.318 2.797-2.309 3.892-.99 1.096-2.22 1.961-3.69 2.595-1.468.635-3.089.952-4.861.952-1.294 0-2.594-.242-3.9-.727-1.737-.657-3.241-1.761-4.512-3.313-1.27-1.55-1.906-3.203-1.906-4.955v-.001z" clip-rule="evenodd"/>
</svg>
