<svg xmlns="http://www.w3.org/2000/svg" width="48" height="48" fill="none" viewBox="0 0 48 48">
    <path fill="#0A66C2" d="M37.226 0H10.774C4.824 0 0 4.824 0 10.774v26.452C0 43.176 4.824 48 10.774 48h26.452C43.176 48 48 43.176 48 37.226V10.774C48 4.824 43.176 0 37.226 0z"/>
    <path fill="#fff" d="M13.301 19.951h4.988v16.095H13.3V19.95zm2.544-7.997c.571 0 1.13.17 1.605.487.476.317.847.768 1.066 1.295.22.528.278 1.109.167 1.67-.11.56-.384 1.076-.787 1.481s-.917.682-1.477.796c-.56.113-1.14.058-1.67-.158-.529-.217-.982-.585-1.302-1.058-.32-.474-.492-1.032-.495-1.603-.002-.382.07-.76.215-1.112.145-.353.357-.674.626-.945.27-.27.589-.485.94-.631.353-.146.73-.222 1.112-.222zM21.481 19.951h4.805v2.195c.481-.82 1.176-1.495 2.01-1.952.835-.457 1.778-.679 2.729-.642 4.988 0 6.002 3.326 6.002 7.665v8.829h-4.988v-7.781c0-1.863 0-4.273-2.594-4.273s-2.993 2.028-2.993 4.123v7.964h-4.988l.017-16.128z"/>
</svg>
